<svg id="Layer_1" data-name="Layer 1" xmlns="http://www.w3.org/2000/svg" viewBox="0 0 1920 1080">
  <defs>
    <style></style>
  </defs>
  <g id="infoboxes">
    <path id="pointer" stroke-width="4" stroke="#000" stroke-miterlimit="10" fill="none" d="M391 712l54-205" />
  </g>
  <path id="timeline" d="M57.5 933.5s564.6-464.13 898-353c135 45 176 86 336 243 193.3 189.67 287 83 346 23 60-61 109-114 155-140s111-27 111-27" stroke-width="5" stroke="#000" stroke-miterlimit="10" fill="none"/>
  <g id="dots">
    <circle class="st2" cx="174.1" cy="846.8" r="26.6"/>
    <circle class="st2" cx="391.1" cy="711.8" r="26.6"/>
    <circle class="st2" cx="625.1" cy="600.8" r="26.6"/>
    <circle class="st2" cx="849.1" cy="562.8" r="26.6"/>
    <circle class="st2" cx="1090.1" cy="639.8" r="26.6"/>
    <circle class="st2" cx="1271.1" cy="799.8" r="26.6"/>
    <circle class="st2" cx="1480.1" cy="926.8" r="26.6"/>
    <circle class="st2" cx="1703.1" cy="781.8" r="26.6"/>
    <g>
      <circle class="dot" data-year="2001" cx="174.1" cy="846.8" r="26.6"/>
      <circle class="dot" data-year="2002" cx="391.1" cy="711.8" r="26.6"/>
      <circle class="dot" data-year="2004" cx="625.1" cy="600.8" r="26.6"/>
      <circle class="dot" data-year="2005" cx="849.1" cy="562.8" r="26.6"/>
      <circle class="dot" data-year="2007" cx="1090.1" cy="639.8" r="26.6"/>
      <circle class="dot" data-year="2009" cx="1271.1" cy="799.8" r="26.6"/>
      <circle class="dot" data-year="2010" cx="1480.1" cy="926.8" r="26.6"/>
      <circle class="dot" data-year="2011" cx="1703.1" cy="781.8" r="26.6"/>
    </g>
    <g>
      <path d="M174.1 824.2c12.5 0 22.6 10.1 22.6 22.6s-10.1 22.6-22.6 22.6-22.6-10.1-22.6-22.6 10.1-22.6 22.6-22.6m0-4c-14.7 0-26.6 11.9-26.6 26.6 0 14.7 11.9 26.6 26.6 26.6s26.6-11.9 26.6-26.6c-.1-14.7-12-26.6-26.6-26.6zM391.1 689.2c12.5 0 22.6 10.1 22.6 22.6s-10.1 22.6-22.6 22.6-22.6-10.1-22.6-22.6 10.1-22.6 22.6-22.6m0-4c-14.7 0-26.6 11.9-26.6 26.6 0 14.7 11.9 26.6 26.6 26.6 14.7 0 26.6-11.9 26.6-26.6-.1-14.7-12-26.6-26.6-26.6zM625.1 578.2c12.5 0 22.6 10.1 22.6 22.6s-10.1 22.6-22.6 22.6-22.6-10.1-22.6-22.6 10.1-22.6 22.6-22.6m0-4c-14.7 0-26.6 11.9-26.6 26.6 0 14.7 11.9 26.6 26.6 26.6s26.6-11.9 26.6-26.6c-.1-14.7-12-26.6-26.6-26.6zM849.1 540.2c12.5 0 22.6 10.1 22.6 22.6s-10.1 22.6-22.6 22.6-22.6-10.1-22.6-22.6 10.1-22.6 22.6-22.6m0-4c-14.7 0-26.6 11.9-26.6 26.6 0 14.7 11.9 26.6 26.6 26.6s26.6-11.9 26.6-26.6c-.1-14.7-12-26.6-26.6-26.6zM1090.1 617.2c12.5 0 22.6 10.1 22.6 22.6s-10.1 22.6-22.6 22.6-22.6-10.1-22.6-22.6 10.1-22.6 22.6-22.6m0-4c-14.7 0-26.6 11.9-26.6 26.6 0 14.7 11.9 26.6 26.6 26.6s26.6-11.9 26.6-26.6c-.1-14.7-12-26.6-26.6-26.6zM1271.1 777.2c12.5 0 22.6 10.1 22.6 22.6s-10.1 22.6-22.6 22.6-22.6-10.1-22.6-22.6 10.1-22.6 22.6-22.6m0-4c-14.7 0-26.6 11.9-26.6 26.6 0 14.7 11.9 26.6 26.6 26.6s26.6-11.9 26.6-26.6c-.1-14.7-12-26.6-26.6-26.6zM1480.1 904.2c12.5 0 22.6 10.1 22.6 22.6s-10.1 22.6-22.6 22.6-22.6-10.1-22.6-22.6 10.1-22.6 22.6-22.6m0-4c-14.7 0-26.6 11.9-26.6 26.6 0 14.7 11.9 26.6 26.6 26.6s26.6-11.9 26.6-26.6c-.1-14.7-12-26.6-26.6-26.6zM1703.1 759.2c12.5 0 22.6 10.1 22.6 22.6s-10.1 22.6-22.6 22.6-22.6-10.1-22.6-22.6 10.1-22.6 22.6-22.6m0-4c-14.7 0-26.6 11.9-26.6 26.6 0 14.7 11.9 26.6 26.6 26.6s26.6-11.9 26.6-26.6c-.1-14.7-12-26.6-26.6-26.6z"/>
    </g>
  </g>
</svg>